<svg width="920" height="409" viewBox="0 0 920 409" fill="none" xmlns="http://www.w3.org/2000/svg">
<g clip-path="url(#clip0_6_406)">
<path d="M528.914 404.496V252.751H612.321V404.496" stroke="#2FAC66" stroke-width="8.10411" stroke-miterlimit="10"/>
<path d="M639.755 252.751H528.914V404.221H639.755V252.751Z" stroke="#2FAC66" stroke-width="8.10411" stroke-miterlimit="10"/>
<path d="M598.468 307.576H570.755" stroke="#2FAC66" stroke-width="8.10411" stroke-miterlimit="10"/>
<path d="M543.046 279.886H570.755" stroke="#2FAC66" stroke-width="8.10411" stroke-miterlimit="10"/>
<path d="M556.903 307.576H543.046" stroke="#2FAC66" stroke-width="8.10411" stroke-miterlimit="10"/>
<path d="M584.612 279.886H598.468" stroke="#2FAC66" stroke-width="8.10411" stroke-miterlimit="10"/>
<path d="M598.468 362.959H570.755" stroke="#2FAC66" stroke-width="8.10411" stroke-miterlimit="10"/>
<path d="M543.046 335.27H570.755" stroke="#2FAC66" stroke-width="8.10411" stroke-miterlimit="10"/>
<path d="M556.903 362.959H543.046" stroke="#2FAC66" stroke-width="8.10411" stroke-miterlimit="10"/>
<path d="M584.612 335.27H598.468" stroke="#2FAC66" stroke-width="8.10411" stroke-miterlimit="10"/>
<path d="M752.998 252.751V155.277H656.01V404.496H704.869H752.998" stroke="#2FAC66" stroke-width="8.10411" stroke-miterlimit="10"/>
<path d="M711.153 404.496V252.751H794.564V404.496" stroke="#2FAC66" stroke-width="8.10411" stroke-miterlimit="10"/>
<path d="M821.993 252.751H711.153V404.221H821.993V252.751Z" stroke="#2FAC66" stroke-width="8.10411" stroke-miterlimit="10"/>
<path d="M780.707 252.751V155.277H656.01V404.496" stroke="#2FAC66" stroke-width="8.10411" stroke-miterlimit="10"/>
<path d="M669.866 349.112H710.878" stroke="#2FAC66" stroke-width="8.10411" stroke-miterlimit="10"/>
<path d="M669.866 321.423H683.723" stroke="#2FAC66" stroke-width="8.10411" stroke-miterlimit="10"/>
<path d="M669.866 293.733H710.878" stroke="#2FAC66" stroke-width="8.10411" stroke-miterlimit="10"/>
<path d="M669.866 266.039H683.723" stroke="#2FAC66" stroke-width="8.10411" stroke-miterlimit="10"/>
<path d="M697.575 266.039H711.432" stroke="#2FAC66" stroke-width="8.10411" stroke-miterlimit="10"/>
<path d="M697.575 321.423H711.432" stroke="#2FAC66" stroke-width="8.10411" stroke-miterlimit="10"/>
<path d="M669.866 238.35H711.432" stroke="#2FAC66" stroke-width="8.10411" stroke-miterlimit="10"/>
<path d="M669.866 210.66H683.723" stroke="#2FAC66" stroke-width="8.10411" stroke-miterlimit="10"/>
<path d="M725.284 238.35H739.141" stroke="#2FAC66" stroke-width="8.10411" stroke-miterlimit="10"/>
<path d="M669.866 182.971H711.432" stroke="#2FAC66" stroke-width="8.10411" stroke-miterlimit="10"/>
<path d="M697.575 210.66H739.141" stroke="#2FAC66" stroke-width="8.10411" stroke-miterlimit="10"/>
<path d="M725.284 182.971H739.141" stroke="#2FAC66" stroke-width="8.10411" stroke-miterlimit="10"/>
<path d="M780.707 307.576H752.998" stroke="#2FAC66" stroke-width="8.10411" stroke-miterlimit="10"/>
<path d="M725.284 279.886H752.998" stroke="#2FAC66" stroke-width="8.10411" stroke-miterlimit="10"/>
<path d="M739.141 307.576H725.284" stroke="#2FAC66" stroke-width="8.10411" stroke-miterlimit="10"/>
<path d="M766.85 279.886H780.707" stroke="#2FAC66" stroke-width="8.10411" stroke-miterlimit="10"/>
<path d="M780.707 362.959H752.998" stroke="#2FAC66" stroke-width="8.10411" stroke-miterlimit="10"/>
<path d="M725.284 335.27H752.998" stroke="#2FAC66" stroke-width="8.10411" stroke-miterlimit="10"/>
<path d="M739.141 362.959H725.284" stroke="#2FAC66" stroke-width="8.10411" stroke-miterlimit="10"/>
<path d="M766.85 335.27H780.707" stroke="#2FAC66" stroke-width="8.10411" stroke-miterlimit="10"/>
<path d="M570.755 230.597L581.123 215.057H570.755L581.123 199.516" stroke="#8AD640" stroke-width="4.05205" stroke-linecap="round" stroke-linejoin="round"/>
<path d="M706.248 133.123L716.616 117.587H706.248L716.616 102.046" stroke="#8AD640" stroke-width="4.05205" stroke-linecap="round" stroke-linejoin="round"/>
<path d="M346.347 341.445H230.85V383.414H346.347V341.445Z" stroke="#2FAC66" stroke-width="6.48329" stroke-miterlimit="10"/>
<path d="M335.848 309.967H241.348V341.445H335.848V309.967Z" stroke="#2FAC66" stroke-width="6.48329" stroke-miterlimit="10"/>
<path d="M241.348 383.414V404.396" stroke="#2FAC66" stroke-width="8.10411" stroke-miterlimit="10"/>
<path d="M236.872 383.414V404.396" stroke="#2FAC66" stroke-width="8.10411" stroke-miterlimit="10"/>
<path d="M230.85 383.414V404.396" stroke="#2FAC66" stroke-width="6.48329" stroke-miterlimit="10"/>
<path d="M346.284 383.414V404.396" stroke="#2FAC66" stroke-width="6.48329" stroke-miterlimit="10"/>
<path d="M335.848 383.414V404.396" stroke="#2FAC66" stroke-width="8.10411" stroke-miterlimit="10"/>
<path d="M341.001 383.414V404.396" stroke="#2FAC66" stroke-width="8.10411" stroke-miterlimit="10"/>
<ellipse cx="257.45" cy="362.427" rx="9.01545" ry="9.00911" fill="#8AD640"/>
<ellipse cx="319.747" cy="362.427" rx="9.01545" ry="9.00911" fill="#8AD640"/>
<path d="M377.72 297.814L388.201 282.107H377.72L388.201 266.399" stroke="#8AD640" stroke-width="4.05205" stroke-linecap="round" stroke-linejoin="round"/>
<path d="M283.36 291.85L293.841 276.143H283.36L293.841 260.435" stroke="#8AD640" stroke-width="4.05205" stroke-linecap="round" stroke-linejoin="round"/>
<path d="M398.681 320.436H367.245V404.207H398.681V320.436Z" stroke="#2FAC66" stroke-width="6.48329" stroke-miterlimit="10"/>
<path d="M382.963 330.909V351.851H346.284" stroke="#2FAC66" stroke-width="6.48329" stroke-miterlimit="10"/>
<path d="M37.4366 404.207V51.2123H170.347V404.207" stroke="#2FAC66" stroke-width="8.10411" stroke-miterlimit="10"/>
<path d="M196.834 51.2123H37.4366V404.207H196.834V51.2123Z" stroke="#2FAC66" stroke-width="8.10411" stroke-miterlimit="10"/>
<path d="M59.9572 193.835H89.3927" stroke="#2FAC66" stroke-width="8.10411" stroke-miterlimit="10"/>
<path d="M118.833 193.835H148.268" stroke="#2FAC66" stroke-width="8.10411" stroke-miterlimit="10"/>
<path d="M59.9572 163.641H112.946" stroke="#2FAC66" stroke-width="8.10411" stroke-miterlimit="10"/>
<path d="M59.9572 123.438H77.6185" stroke="#2FAC66" stroke-width="8.10411" stroke-miterlimit="10"/>
<path d="M130.607 163.641H148.268" stroke="#2FAC66" stroke-width="8.10411" stroke-miterlimit="10"/>
<path d="M59.9572 83.2351H112.946" stroke="#2FAC66" stroke-width="8.10411" stroke-miterlimit="10"/>
<path d="M95.2798 123.438H148.268" stroke="#2FAC66" stroke-width="8.10411" stroke-miterlimit="10"/>
<path d="M130.607 83.2351H148.268" stroke="#2FAC66" stroke-width="8.10411" stroke-miterlimit="10"/>
<path d="M148.268 264.147H104.115" stroke="#2FAC66" stroke-width="8.10411" stroke-miterlimit="10"/>
<path d="M59.9572 223.944H104.115" stroke="#2FAC66" stroke-width="8.10411" stroke-miterlimit="10"/>
<path d="M82.0361 264.147H59.9572" stroke="#2FAC66" stroke-width="8.10411" stroke-miterlimit="10"/>
<path d="M126.189 223.944H148.268" stroke="#2FAC66" stroke-width="8.10411" stroke-miterlimit="10"/>
<path d="M148.268 344.549H104.115" stroke="#2FAC66" stroke-width="8.10411" stroke-miterlimit="10"/>
<path d="M59.9572 304.35H104.115" stroke="#2FAC66" stroke-width="8.10411" stroke-miterlimit="10"/>
<path d="M82.0361 344.549H59.9572" stroke="#2FAC66" stroke-width="8.10411" stroke-miterlimit="10"/>
<path d="M126.189 304.35H148.268" stroke="#2FAC66" stroke-width="8.10411" stroke-miterlimit="10"/>
<path d="M0 404.495H920" stroke="#8FC046" stroke-width="8.10411" stroke-miterlimit="10"/>
<path d="M107.762 33.3337L118.129 17.793H107.762L118.129 2.25232" stroke="#8AD640" stroke-width="4.05205" stroke-linecap="round" stroke-linejoin="round"/>
<path d="M869.635 332.788L878.065 320.148H869.635L878.065 307.508" stroke="#8AD640" stroke-width="4.05205" stroke-linecap="round" stroke-linejoin="round"/>
<path d="M460.847 330.558L469.281 317.918H460.847L469.281 305.278" stroke="#8AD640" stroke-width="4.05205" stroke-linecap="round" stroke-linejoin="round"/>
<path d="M488.777 396.86C496.505 396.86 502.769 390.6 502.769 382.878C502.769 375.156 496.505 368.896 488.777 368.896C481.05 368.896 474.785 375.156 474.785 382.878C474.785 390.6 481.05 396.86 488.777 396.86Z" stroke="#2FAC66" stroke-width="5.67288" stroke-miterlimit="10"/>
<path d="M441.352 396.86C449.079 396.86 455.344 390.6 455.344 382.878C455.344 375.156 449.079 368.896 441.352 368.896C433.624 368.896 427.36 375.156 427.36 382.878C427.36 390.6 433.624 396.86 441.352 396.86Z" stroke="#2FAC66" stroke-width="5.67288" stroke-miterlimit="10"/>
<path d="M441.352 382.878H474.79" stroke="#2FAC66" stroke-width="5.67288" stroke-linecap="round" stroke-linejoin="round"/>
<path d="M457.899 360.486L467.708 382.711" stroke="#2FAC66" stroke-width="5.67288" stroke-miterlimit="10"/>
<path d="M488.777 382.711L474.235 349.77C473.74 348.643 472.622 347.914 471.387 347.914H465.436" stroke="#2FAC66" stroke-width="5.67288" stroke-miterlimit="10"/>
<path d="M461.609 368.896H488.777" stroke="#2FAC66" stroke-width="5.67288" stroke-miterlimit="10"/>
<path d="M448.492 360.486H464.269" stroke="#2FAC66" stroke-width="5.67288" stroke-miterlimit="10" stroke-linecap="round"/>
<path d="M853.349 396.86C856.563 396.86 859.168 394.257 859.168 391.045C859.168 387.833 856.563 385.23 853.349 385.23C850.135 385.23 847.529 387.833 847.529 391.045C847.529 394.257 850.135 396.86 853.349 396.86Z" stroke="#2FAC66" stroke-width="5.67288" stroke-miterlimit="10"/>
<path d="M894.351 396.86C897.565 396.86 900.171 394.257 900.171 391.045C900.171 387.833 897.565 385.23 894.351 385.23C891.137 385.23 888.532 387.833 888.532 391.045C888.532 394.257 891.137 396.86 894.351 396.86Z" stroke="#2FAC66" stroke-width="5.67288" stroke-miterlimit="10"/>
<path d="M888.536 391.045H868.287C868.287 384.175 863.644 378.387 857.32 376.648C855.152 376.054 853.939 373.729 854.48 371.549L859.164 352.666H870.938" stroke="#2FAC66" stroke-width="5.67288" stroke-miterlimit="10"/>
</g>
<defs>
<clipPath id="clip0_6_406">
<rect width="920" height="409" fill="white"/>
</clipPath>
</defs>
</svg>
