<svg width="720" height="256" viewBox="0 0 720 256" fill="none" xmlns="http://www.w3.org/2000/svg">
<path d="M114.777 103.561L111.466 105.471C111.37 105.308 111.285 105.156 111.189 105.003C107.754 99.1975 103.088 94.3279 97.6578 90.6613C96.4555 89.8402 95.2245 89.0859 93.9553 88.3984C87.9722 85.1233 81.2543 83.1945 74.2787 82.9081C73.6394 82.8699 73.0096 82.8603 72.3702 82.8603H37.4352L38.4562 79.041H72.3702C72.9905 79.041 73.6203 79.0506 74.2406 79.0792C81.1302 79.3466 87.7909 81.0748 93.8408 84.0348C95.1768 84.6841 96.4841 85.4002 97.7533 86.1832C102.649 89.1527 107.038 92.9816 110.664 97.5361C112.172 99.4267 113.546 101.432 114.777 103.561Z" fill="white"/>
<path d="M114.71 152.563C113.498 154.654 112.153 156.631 110.655 158.483C107.048 163.028 102.658 166.857 97.7533 169.826C96.4841 170.609 95.1768 171.325 93.8408 171.965C87.8004 174.935 81.1302 176.663 74.2406 176.93C73.6203 176.959 73 176.969 72.3702 176.969H38.4562L37.4352 173.149H72.3702C73.0096 173.149 73.6489 173.14 74.2787 173.101C81.2543 172.805 87.9722 170.886 93.9553 167.621C95.2245 166.924 96.465 166.169 97.6578 165.358C103.097 161.682 107.744 156.822 111.189 151.016C111.265 150.892 111.332 150.768 111.409 150.644L114.71 152.563Z" fill="white"/>
<path d="M108.441 79.9958C104.156 72.5577 98.1254 66.5136 90.9208 62.2837C88.7165 60.9851 86.3977 59.8584 83.9835 58.9131C82.2753 58.2447 80.5291 57.6718 78.7351 57.1849C74.8895 56.1632 71.0057 55.5998 67.1314 55.5139C65.6428 55.4757 64.1542 55.5139 62.6655 55.6094C55.9476 56.0677 49.3538 57.9392 43.2466 61.1665H43.2275C43.2275 61.1665 43.237 61.1665 43.237 61.1761L41.8534 66.3417L43.5042 65.3869C44.0577 65.0718 44.6111 64.7567 45.1741 64.4702C51.3672 61.2142 58.1042 59.486 64.9462 59.3332C66.3966 59.295 67.8471 59.3332 69.2976 59.4383C72.1221 59.6483 74.9467 60.1257 77.7427 60.8801C81.4261 61.8635 84.9186 63.2862 88.1535 65.1004C90.3387 66.3131 92.3999 67.7167 94.3371 69.2635C98.6312 72.7295 102.295 76.9881 105.139 81.9055C107.964 86.8133 109.815 92.1031 110.664 97.5361C111.055 99.9995 111.227 102.492 111.189 105.003C111.141 108.727 110.636 112.47 109.643 116.165C108.899 118.953 107.897 121.626 106.675 124.166C106.046 125.484 105.34 126.773 104.586 128.014C101.036 133.867 96.1692 138.842 90.2624 142.585C89.728 142.919 89.1746 143.253 88.6211 143.578L86.9702 144.533L74.2787 151.866L70.4617 154.072L64.9748 157.232L58.3714 161.061L37.4352 173.149L38.4562 176.969H38.4658L45.0787 173.149L54.5449 167.678L61.1578 163.859L70.4617 158.483L74.2787 156.277L88.8406 147.865L90.5296 146.891C91.0735 146.576 91.6079 146.252 92.1327 145.917C97.9918 142.251 102.906 137.458 106.666 131.853C107.506 130.611 108.288 129.322 109.004 128.005C110.855 124.615 112.315 120.977 113.336 117.158C116.714 104.525 114.977 91.3297 108.441 79.9958Z" fill="#2FAC66"/>
<path d="M97.7533 86.1831C97.6197 80.3777 96.4555 74.6391 94.337 69.2634C93.3923 66.8573 92.2472 64.5179 90.9208 62.2836C86.7889 55.2751 80.8535 49.2024 73.3245 44.8579C65.91 40.5803 57.7034 38.346 49.3728 38.2791C49.3537 38.2696 49.3346 38.2696 49.3156 38.2791C49.3346 38.2887 49.3442 38.2982 49.3633 38.3078L48.3422 42.108C50.8424 42.0698 53.3234 42.2417 55.7758 42.6332C61.215 43.4734 66.5016 45.3258 71.416 48.1616C76.3781 51.0261 80.5863 54.7022 83.9834 58.9131C85.5484 60.8705 86.9416 62.9424 88.1535 65.1004C91.417 70.9153 93.3542 77.3986 93.8408 84.0347C93.9458 85.486 93.984 86.9374 93.9553 88.3983C93.7931 95.1012 92.1327 101.861 88.8406 108.154C88.5543 108.717 88.2489 109.28 87.9245 109.834L86.9702 111.486L79.6416 124.185L77.4373 128.014L74.2787 133.485L70.4617 140.093L58.3714 161.061L54.5448 167.678L51.3863 173.149L49.182 176.968L41.8533 189.668V189.677L43.2275 194.833C43.5614 194.308 43.8763 193.774 44.1912 193.239L45.1646 191.549L53.5811 176.968L55.7854 173.149L61.1483 163.859L64.9652 157.232L70.4522 147.741L74.2692 141.124L79.6321 131.834L81.8364 128.014L90.2528 113.434L91.2262 111.744C91.5411 111.2 91.8369 110.655 92.1232 110.102C95.4058 103.905 97.1998 97.2878 97.6483 90.6612C97.7533 89.1717 97.7914 87.6726 97.7437 86.1831H97.7533Z" fill="white"/>
<path d="M97.6578 165.358C97.2093 158.731 95.4153 152.114 92.1327 145.917C91.8464 145.364 91.5506 144.819 91.2357 144.275L90.2624 142.585L81.8459 128.014L79.6416 124.185L74.2787 114.895L70.4617 108.278L64.9748 98.7869L61.1578 92.1603L55.7854 82.8603L53.5811 79.0409L45.1741 64.4702L44.2008 62.7801C43.8859 62.2359 43.571 61.7012 43.237 61.176L41.8533 66.3417L49.182 79.0409L51.3863 82.8603L54.5448 88.341L58.3714 94.958L70.4617 115.926L74.2787 122.534L77.4373 128.014L79.6416 131.834L86.9702 144.533L87.9245 146.185C88.2489 146.739 88.5543 147.302 88.8406 147.865C92.1327 154.158 93.7931 160.918 93.9553 167.621C93.984 169.072 93.9458 170.523 93.8408 171.965C93.3637 178.611 91.417 185.094 88.1535 190.919C86.9416 193.077 85.5484 195.148 83.9834 197.106C80.5863 201.317 76.3781 204.993 71.416 207.857C66.5016 210.693 61.215 212.546 55.7758 213.386C53.3234 213.777 50.8328 213.949 48.3422 213.911L49.3633 217.702H49.3728C49.3728 217.702 49.3824 217.711 49.3919 217.702C57.5412 217.635 65.7764 215.515 73.3245 211.161C80.8439 206.817 86.7794 200.753 90.9113 193.754C92.2472 191.511 93.3923 189.162 94.337 186.736C96.4555 181.361 97.6196 175.632 97.7532 169.826C97.801 168.337 97.7628 166.847 97.6578 165.358Z" fill="white"/>
<path d="M113.336 138.861C112.315 135.032 110.855 131.394 109.004 128.005C108.288 126.687 107.506 125.408 106.675 124.166C102.906 118.562 97.9918 113.768 92.1327 110.102C91.6079 109.758 91.0735 109.443 90.5296 109.128L88.8406 108.154L74.2787 99.7418L70.4617 97.5361L61.1578 92.1604L54.5448 88.3411L45.0596 82.8603L38.4562 79.041L37.4352 82.8603L58.3714 94.9581L64.9748 98.7869L70.4617 101.947L74.2787 104.153L86.9702 111.486L88.6211 112.441C89.1745 112.766 89.728 113.09 90.2624 113.434C96.1692 117.177 101.036 122.161 104.586 128.014C105.349 129.256 106.046 130.535 106.666 131.853C107.897 134.393 108.899 137.066 109.643 139.854C110.636 143.549 111.141 147.292 111.189 151.016C111.227 153.527 111.055 156.02 110.655 158.483C109.815 163.916 107.964 169.206 105.139 174.104C102.295 179.021 98.6311 183.29 94.337 186.737C92.3999 188.302 90.3387 189.706 88.1535 190.919C84.9186 192.733 81.426 194.156 77.7426 195.139C74.9467 195.884 72.1221 196.361 69.2975 196.571C67.8471 196.686 66.3966 196.724 64.9462 196.676C58.1042 196.524 51.3672 194.805 45.1741 191.549C44.6111 191.262 44.0577 190.947 43.5042 190.632L41.8629 189.677L43.237 194.833H43.2275C43.2275 194.833 43.237 194.853 43.2465 194.853C49.3442 198.08 55.938 199.951 62.6655 200.41C63.7724 200.486 64.8794 200.524 65.9863 200.524C66.368 200.524 66.7497 200.524 67.1314 200.505C71.0056 200.419 74.899 199.856 78.7351 198.834C80.529 198.357 82.2753 197.774 83.9834 197.106C86.3881 196.17 88.707 195.044 90.9113 193.755C98.1254 189.515 104.156 183.461 108.441 176.014C114.977 164.689 116.714 151.494 113.336 138.861Z" fill="#2FAC66"/>
<path d="M74.2405 79.0792C73.9733 72.0612 72.2271 65.406 69.2975 59.4383C68.6391 58.092 67.9139 56.7839 67.1314 55.5139C64.1255 50.5775 60.2703 46.2234 55.7758 42.6333C53.7623 41.0291 51.6153 39.5778 49.3633 38.3079L48.3422 42.1081C48.3422 42.1081 48.3327 42.0985 48.3231 42.1081C48.3327 42.1081 48.3422 42.1176 48.3422 42.1176C54.0486 45.5168 58.9439 50.1287 62.6655 55.6094C63.4861 56.8125 64.2495 58.0538 64.9461 59.3333C68.1715 65.2341 70.1277 71.9275 70.414 79.041C70.4522 79.6712 70.4617 80.3109 70.4617 80.9507L70.4617 175.059C70.4617 175.699 70.4522 176.338 70.414 176.969C70.1277 184.082 68.1715 190.775 64.9461 196.676C64.2495 197.956 63.4861 199.207 62.6655 200.41C58.9439 205.881 54.0486 210.502 48.3422 213.892L48.3231 213.911C48.3231 213.911 48.3327 213.921 48.3422 213.911L49.3633 217.702V217.721H49.3728L49.3919 217.702C51.6344 216.432 53.7719 214.98 55.7758 213.386C60.2703 209.796 64.1255 205.442 67.1314 200.505C67.9139 199.235 68.6391 197.927 69.2975 196.571C72.2271 190.604 73.9829 183.958 74.2405 176.93C74.2692 176.31 74.2787 175.689 74.2787 175.059L74.2787 80.9507C74.2787 80.3205 74.2692 79.6998 74.2405 79.0792Z" fill="#2FAC66"/>
<path d="M43.2469 194.853C43.2469 194.853 43.2372 194.853 43.2275 194.843H43.2372L43.2469 194.853Z" fill="white"/>
<path d="M48.3231 213.911L48.3425 213.892V213.911C48.3425 213.911 48.3328 213.921 48.3231 213.911Z" fill="white"/>
<path d="M37.4161 82.8604H37.4355V82.8701L37.4161 82.8604Z" fill="white"/>
<path d="M48.3231 42.1081C48.3231 42.1081 48.3328 42.0984 48.3425 42.1081C48.3425 42.1081 48.3328 42.1081 48.3231 42.1081Z" fill="white"/>
<path d="M49.3728 38.2791V38.3078C49.3728 38.3078 49.3346 38.2887 49.3156 38.2791C49.3346 38.2696 49.3537 38.2696 49.3728 38.2791Z" fill="white"/>
<path d="M177.862 213.892L177.882 213.911C177.882 213.911 177.872 213.921 177.862 213.911V213.892Z" fill="white"/>
<path d="M176.832 38.2791C176.832 38.2791 176.86 38.2696 176.88 38.2791C176.87 38.2887 176.851 38.2887 176.841 38.2982V38.2791H176.832Z" fill="white"/>
<path d="M177.862 42.1081C177.862 42.1081 177.872 42.0984 177.882 42.1081C177.882 42.1081 177.875 42.1113 177.862 42.1178V42.1081Z" fill="white"/>
<path d="M111.437 103.561L114.748 105.471C114.844 105.308 114.93 105.156 115.025 105.003C118.46 99.1975 123.127 94.3279 128.556 90.6613C129.759 89.8402 130.99 89.0859 132.259 88.3984C138.242 85.1233 144.96 83.1945 151.935 82.9081C152.575 82.8699 153.205 82.8603 153.844 82.8603L188.779 82.8603L187.758 79.041L153.844 79.041C153.224 79.041 152.594 79.0506 151.974 79.0792C145.084 79.3466 138.423 81.0748 132.373 84.0348C131.037 84.6841 129.73 85.4002 128.461 86.1832C123.566 89.1527 119.176 92.9816 115.55 97.5361C114.042 99.4267 112.668 101.432 111.437 103.561Z" fill="white"/>
<path d="M111.504 152.563C112.716 154.654 114.061 156.631 115.559 158.483C119.167 163.028 123.556 166.857 128.461 169.826C129.73 170.609 131.037 171.325 132.373 171.965C138.414 174.935 145.084 176.663 151.974 176.93C152.594 176.959 153.214 176.969 153.844 176.969H187.758L188.779 173.149H153.844C153.205 173.149 152.565 173.14 151.935 173.101C144.96 172.805 138.242 170.886 132.259 167.621C130.99 166.924 129.749 166.169 128.556 165.358C123.117 161.682 118.47 156.822 115.025 151.016C114.949 150.892 114.882 150.768 114.806 150.644L111.504 152.563Z" fill="white"/>
<path d="M112.878 117.158C113.899 120.977 115.359 124.615 117.21 128.005C117.926 129.322 118.709 130.611 119.548 131.853C123.308 137.458 128.222 142.251 134.081 145.917C134.606 146.252 135.141 146.576 135.685 146.891L137.374 147.865L151.935 156.277L155.752 158.483L165.056 163.859L171.669 167.678L181.136 173.149L187.748 176.969H187.758L188.779 173.149L167.843 161.061L161.239 157.232L155.752 154.072L151.935 151.866L139.244 144.533L137.593 143.578C137.04 143.253 136.486 142.919 135.952 142.585C130.045 138.842 125.178 133.867 121.629 128.014C120.875 126.773 120.169 125.484 119.539 124.166C118.317 121.626 117.315 118.953 116.571 116.165C115.579 112.47 115.073 108.727 115.025 105.003C114.987 102.492 115.159 99.9995 115.55 97.5361C116.399 92.1031 118.25 86.8133 121.075 81.9055C123.919 76.9881 127.583 72.7295 131.877 69.2635C133.814 67.7167 135.875 66.3131 138.061 65.1004C141.296 63.2862 144.788 61.8635 148.472 60.8801C151.268 60.1257 154.092 59.6483 156.917 59.4383C158.367 59.3332 159.818 59.295 161.268 59.3332C168.11 59.486 174.847 61.2142 181.04 64.4702C181.603 64.7567 182.157 65.0718 182.71 65.3869L184.361 66.3417L182.977 61.1761L182.987 61.1665H182.968C176.86 57.9392 170.267 56.0677 163.549 55.6094C162.06 55.5139 160.571 55.4757 159.083 55.5139C155.209 55.5998 151.325 56.1632 147.479 57.1849C145.685 57.6718 143.939 58.2447 142.231 58.9131C139.817 59.8584 137.498 60.9851 135.293 62.2837C128.089 66.5136 122.058 72.5577 117.773 79.9958C111.237 91.3297 109.5 104.525 112.878 117.158Z" fill="#2FAC66"/>
<path d="M128.556 90.6612C129.005 97.2878 130.799 103.905 134.081 110.102C134.368 110.655 134.664 111.2 134.978 111.744L135.952 113.434L144.368 128.014L146.573 131.834L151.935 141.124L155.752 147.741L161.239 157.232L165.056 163.859L170.419 173.149L172.624 176.968L181.04 191.549L182.013 193.239C182.328 193.774 182.643 194.308 182.977 194.833L184.351 189.677L177.023 176.968L174.818 173.149L171.66 167.678L167.833 161.061L155.743 140.093L151.926 133.485L148.767 128.014L146.563 124.185L139.234 111.486L138.28 109.834C137.956 109.28 137.65 108.717 137.364 108.154C134.072 101.861 132.412 95.1012 132.249 88.3983C132.221 86.9374 132.259 85.486 132.364 84.0347C132.85 77.3986 134.788 70.9153 138.051 65.1004C139.263 62.9424 140.656 60.8705 142.221 58.9131C145.618 54.7022 149.827 51.0261 154.789 48.1616C159.703 45.3258 164.99 43.4734 170.429 42.6332C172.881 42.2417 175.362 42.0698 177.862 42.108L176.841 38.3078C176.841 38.3078 176.87 38.2887 176.889 38.2791C176.87 38.2696 176.851 38.2696 176.832 38.2791C168.501 38.346 160.295 40.5803 152.88 44.8579C145.351 49.2024 139.416 55.2751 135.284 62.2836C133.957 64.5179 132.812 66.8573 131.868 69.2634C129.749 74.6391 128.585 80.3777 128.451 86.1831C128.404 87.6726 128.442 89.1717 128.547 90.6612H128.556Z" fill="white"/>
<path d="M128.461 169.826C128.595 175.632 129.759 181.361 131.877 186.736C132.822 189.162 133.967 191.511 135.303 193.754C139.435 200.753 145.37 206.817 152.89 211.161C160.438 215.515 168.673 217.635 176.822 217.702C176.822 217.702 176.829 217.705 176.841 217.711H176.851L177.872 213.911C175.381 213.949 172.891 213.777 170.438 213.386C164.999 212.546 159.713 210.693 154.798 207.857C149.836 204.993 145.628 201.317 142.231 197.106C140.666 195.148 139.273 193.077 138.061 190.919C134.797 185.094 132.851 178.611 132.373 171.965C132.268 170.523 132.23 169.072 132.259 167.621C132.421 160.918 134.082 154.158 137.374 147.865C137.66 147.302 137.965 146.739 138.29 146.185L139.244 144.533L146.573 131.834L148.777 128.014L151.936 122.534L155.753 115.926L167.843 94.958L171.669 88.341L174.828 82.8603L177.032 79.0409L184.361 66.3417L182.977 61.176C182.643 61.7012 182.328 62.2359 182.013 62.7801L181.04 64.4702L172.633 79.0409L170.429 82.8603L165.056 92.1603L161.239 98.7869L155.753 108.278L151.936 114.895L146.573 124.185L144.368 128.014L135.952 142.585L134.979 144.275C134.664 144.819 134.368 145.364 134.082 145.917C130.799 152.114 129.005 158.731 128.556 165.358C128.451 166.847 128.413 168.337 128.461 169.826Z" fill="white"/>
<path d="M117.773 176.014C122.058 183.461 128.089 189.515 135.303 193.755C137.507 195.044 139.826 196.17 142.231 197.106C143.939 197.774 145.685 198.357 147.479 198.834C151.315 199.856 155.209 200.419 159.083 200.505C159.465 200.524 159.846 200.524 160.228 200.524C161.335 200.524 162.442 200.486 163.549 200.41C170.276 199.951 176.87 198.08 182.968 194.853C182.968 194.853 182.974 194.849 182.987 194.843H182.977L184.351 189.677L182.71 190.632C182.157 190.947 181.603 191.262 181.04 191.549C174.847 194.805 168.11 196.524 161.268 196.676C159.818 196.724 158.367 196.676 156.917 196.571C154.092 196.361 151.268 195.884 148.472 195.139C144.788 194.156 141.296 192.733 138.061 190.919C135.875 189.706 133.814 188.302 131.877 186.737C127.583 183.29 123.919 179.021 121.075 174.104C118.25 169.206 116.399 163.916 115.56 158.483C115.159 156.02 114.987 153.527 115.025 151.016C115.073 147.292 115.579 143.549 116.571 139.854C117.315 137.066 118.317 134.393 119.548 131.853C120.169 130.535 120.865 129.256 121.629 128.014C125.178 122.161 130.045 117.177 135.952 113.434C136.486 113.09 137.04 112.766 137.593 112.441L139.244 111.486L151.935 104.153L155.752 101.947L161.239 98.7869L167.843 94.9581L188.779 82.8699H188.798L188.779 82.8603L187.758 79.041L181.155 82.8603L171.669 88.3411L165.056 92.1604L155.752 97.5361L151.935 99.7418L137.374 108.154L135.685 109.128C135.141 109.443 134.606 109.758 134.081 110.102C128.222 113.768 123.308 118.562 119.539 124.166C118.709 125.408 117.926 126.687 117.21 128.005C115.359 131.394 113.899 135.032 112.878 138.861C109.5 151.494 111.237 164.689 117.773 176.014Z" fill="#2FAC66"/>
<path d="M151.935 80.9507L151.935 175.059C151.935 175.689 151.945 176.31 151.974 176.93C152.231 183.958 153.987 190.604 156.917 196.571C157.575 197.927 158.3 199.235 159.083 200.505C162.089 205.442 165.944 209.796 170.438 213.386C172.442 214.98 174.58 216.432 176.822 217.702C176.822 217.702 176.829 217.705 176.841 217.711H176.851V217.702L177.872 213.911C177.872 213.911 177.882 213.921 177.891 213.911L177.872 213.892C172.166 210.502 167.27 205.881 163.549 200.41C162.728 199.207 161.965 197.956 161.268 196.676C158.043 190.775 156.086 184.082 155.8 176.969C155.762 176.338 155.752 175.699 155.752 175.059L155.752 80.9507C155.752 80.3109 155.762 79.6712 155.8 79.041C156.086 71.9275 158.043 65.2341 161.268 59.3333C161.965 58.0538 162.728 56.8125 163.549 55.6094C167.27 50.1287 172.166 45.5168 177.872 42.1176C177.872 42.1176 177.882 42.1081 177.891 42.1081C177.891 42.1081 177.885 42.1081 177.872 42.1081L176.851 38.3079C174.599 39.5778 172.452 41.0291 170.438 42.6333C165.944 46.2234 162.089 50.5775 159.083 55.5139C158.3 56.7839 157.575 58.092 156.917 59.4383C153.987 65.406 152.241 72.0612 151.974 79.0792C151.945 79.6998 151.935 80.3205 151.935 80.9507Z" fill="#2FAC66"/>
<path d="M227.064 90.4419H243.839C274.766 90.4419 287.763 101.776 287.763 128.311C287.763 154.845 274.766 166.389 243.839 166.389H227.064V90.4419ZM243.944 160.832C270.358 160.832 282 151.389 282 128.311C282 105.232 270.367 95.999 243.839 95.999H232.827V160.823H243.944V160.832Z" fill="#2FAC66"/>
<path d="M354.169 166.389L332.47 137.544C330.266 137.649 327.966 137.754 325.552 137.754H311.82V166.389H306.056V90.4419H325.657C347.776 90.4419 360.773 95.2638 360.773 114.045C360.773 128.626 352.805 134.813 338.968 136.914L361.718 166.389H354.169ZM325.762 132.407C343.902 132.407 355.009 129.676 355.009 114.15C355.009 98.6248 343.902 95.894 325.762 95.894H311.82V132.397H325.762V132.407Z" fill="#2FAC66"/>
<path d="M378.331 90.4419H384.095V166.389H378.331V90.4419Z" fill="#2FAC66"/>
<path d="M396.968 90.4419H403.361L433.134 159.887L463.011 90.4419H469.405L436.273 166.389H429.88L396.958 90.4419H396.968Z" fill="white"/>
<path d="M482.411 90.4417L530.839 90.4417V95.9988L488.175 95.9988V124.949H528.95V130.296H488.175V160.822H530.839V166.379H482.411V90.4321V90.4417Z" fill="#2FAC66"/>
<path d="M544.828 161.252C589.697 132.407 596.406 125.589 596.406 112.269C596.406 100.945 587.178 95.0632 574.286 95.0632C561.394 95.0632 553.426 100.515 550.907 111.114L545.353 110.379C548.292 97.1638 558.98 89.6111 574.286 89.6111C590.642 89.6111 602.274 97.4789 602.274 112.059C602.274 126.639 593.676 135.348 554.151 160.832H601.854V166.389H544.828V161.252Z" fill="white"/>
<path d="M644.519 126.219L617.265 90.4514H624.394L648.088 121.503L671.572 90.4514H678.7L651.552 126.219L682.059 166.399H675.036L648.097 130.946L621.159 166.399H614.031L644.538 126.219H644.519Z" fill="white"/>
</svg>
