<svg width="126" height="94" viewBox="0 0 126 94" fill="none" xmlns="http://www.w3.org/2000/svg">
<g filter="url(#filter0_dd_2098_111)">
<rect x="6.85718" y="2.28571" width="112" height="80" rx="9.14286" fill="#F93939"/>
<path fill-rule="evenodd" clip-rule="evenodd" d="M6.85718 2.28571H44.1905V82.2857H6.85718V2.28571Z" fill="#249F58"/>
<path d="M44.1906 55.6191C53.0272 55.6191 60.1906 48.4557 60.1906 39.6191C60.1906 30.7826 53.0272 23.6191 44.1906 23.6191C35.3541 23.6191 28.1906 30.7826 28.1906 39.6191C28.1906 48.4557 35.3541 55.6191 44.1906 55.6191Z" fill="#FFDA2C"/>
<path fill-rule="evenodd" clip-rule="evenodd" d="M54.8572 44.9522V28.9522H33.5238V44.9522C33.5238 47.8962 38.2972 50.2856 44.1905 50.2856C50.0838 50.2856 54.8572 47.8962 54.8572 44.9522Z" fill="#F93939"/>
<path fill-rule="evenodd" clip-rule="evenodd" d="M38.8571 34.2857H49.5237V44.9524H38.8571V34.2857Z" fill="white"/>
<path fill-rule="evenodd" clip-rule="evenodd" d="M38.8571 34.2857H44.1904V39.6191H38.8571V34.2857ZM44.1904 39.6191H49.5237V44.9524H44.1904V39.6191Z" fill="#1A47B8"/>
</g>
<defs>
<filter id="filter0_dd_2098_111" x="3.43323e-05" y="-9.05991e-06" width="125.714" height="93.7143" filterUnits="userSpaceOnUse" color-interpolation-filters="sRGB">
<feFlood flood-opacity="0" result="BackgroundImageFix"/>
<feColorMatrix in="SourceAlpha" type="matrix" values="0 0 0 0 0 0 0 0 0 0 0 0 0 0 0 0 0 0 127 0" result="hardAlpha"/>
<feOffset dy="4.57143"/>
<feGaussianBlur stdDeviation="3.42857"/>
<feComposite in2="hardAlpha" operator="out"/>
<feColorMatrix type="matrix" values="0 0 0 0 0.258824 0 0 0 0 0.278431 0 0 0 0 0.298039 0 0 0 0.08 0"/>
<feBlend mode="normal" in2="BackgroundImageFix" result="effect1_dropShadow_2098_111"/>
<feColorMatrix in="SourceAlpha" type="matrix" values="0 0 0 0 0 0 0 0 0 0 0 0 0 0 0 0 0 0 127 0" result="hardAlpha"/>
<feOffset/>
<feGaussianBlur stdDeviation="0.285714"/>
<feComposite in2="hardAlpha" operator="out"/>
<feColorMatrix type="matrix" values="0 0 0 0 0.258824 0 0 0 0 0.278431 0 0 0 0 0.298039 0 0 0 0.32 0"/>
<feBlend mode="normal" in2="effect1_dropShadow_2098_111" result="effect2_dropShadow_2098_111"/>
<feBlend mode="normal" in="SourceGraphic" in2="effect2_dropShadow_2098_111" result="shape"/>
</filter>
</defs>
</svg>
