<svg width="146" height="146" viewBox="0 0 146 146" fill="none" xmlns="http://www.w3.org/2000/svg">
<path d="M18.25 18.25H36.5V36.5H18.25V18.25Z" fill="#212529"/>
<path d="M54.75 0V54.75H0V0H54.75ZM45.625 9.125H9.125V45.625H45.625V9.125Z" fill="#212529"/>
<path d="M36.5 109.5H18.25V127.75H36.5V109.5Z" fill="#212529"/>
<path d="M54.75 91.25V146H0V91.25H54.75ZM9.125 100.375V136.875H45.625V100.375H9.125Z" fill="#212529"/>
<path d="M109.5 18.25H127.75V36.5H109.5V18.25Z" fill="#212529"/>
<path d="M91.25 0V54.75H146V0H91.25ZM136.875 9.125V45.625H100.375V9.125H136.875Z" fill="#212529"/>
<path d="M73 9.125V0H82.125V18.25H73V36.5H63.875V9.125H73Z" fill="#212529"/>
<path d="M73 54.75V36.5H82.125V54.75H73Z" fill="#212529"/>
<path d="M54.75 73V63.875H63.875V54.75H73V73H82.125V63.875H127.75V73H91.25V82.125H63.875V73H54.75Z" fill="#212529"/>
<path d="M54.75 73V82.125H18.25V73H9.125V82.125H0V63.875H27.375V73H54.75Z" fill="#212529"/>
<path d="M146 82.125H136.875V63.875H146V82.125Z" fill="#212529"/>
<path d="M136.875 82.125H127.75V100.375H146V91.25H136.875V82.125Z" fill="#212529"/>
<path d="M100.375 82.125H118.625V91.25H109.5V100.375H100.375V82.125Z" fill="#212529"/>
<path d="M118.625 109.5V100.375H109.5V109.5H100.375V118.625H82.125V127.75H109.5V109.5H118.625Z" fill="#212529"/>
<path d="M118.625 109.5H146V118.625H127.75V127.75H118.625V109.5Z" fill="#212529"/>
<path d="M82.125 100.375V109.5H91.25V91.25H63.875V100.375H82.125Z" fill="#212529"/>
<path d="M63.875 109.5H73V136.875H109.5V146H63.875V109.5Z" fill="#212529"/>
<path d="M146 127.75V146H118.625V136.875H136.875V127.75H146Z" fill="#212529"/>
</svg>
