<?xml version="1.0" encoding="UTF-8"?>
<svg id="LOGO" xmlns="http://www.w3.org/2000/svg" viewBox="0 0 754.52 268.11">
  <g>
    <g>
      <g>
        <path d="m120.28,108.46l-3.47,2c-.1-.17-.19-.33-.29-.49-3.6-6.08-8.49-11.18-14.18-15.02-1.26-.86-2.55-1.65-3.88-2.37-6.27-3.43-13.31-5.45-20.62-5.75-.67-.04-1.33-.05-2-.05h-36.61l1.07-4h35.54c.65,0,1.31.01,1.96.04,7.22.28,14.2,2.09,20.54,5.19,1.4.68,2.77,1.43,4.1,2.25,5.13,3.11,9.73,7.12,13.53,11.89,1.58,1.98,3.02,4.08,4.31,6.31Z" style="fill: #1d1d1b;"/>
        <path d="m120.21,159.78c-1.27,2.19-2.68,4.26-4.25,6.2-3.78,4.76-8.38,8.77-13.52,11.88-1.33.82-2.7,1.57-4.1,2.24-6.33,3.11-13.32,4.92-20.54,5.2-.65.03-1.3.04-1.96.04h-35.54l-1.07-4h36.61c.67,0,1.34-.01,2-.05,7.31-.31,14.35-2.32,20.62-5.74,1.33-.73,2.63-1.52,3.88-2.37,5.7-3.85,10.57-8.94,14.18-15.02.08-.13.15-.26.23-.39l3.46,2.01Z" style="fill: #1d1d1b;"/>
      </g>
      <path d="m113.64,83.78c-4.49-7.79-10.81-14.12-18.36-18.55-2.31-1.36-4.74-2.54-7.27-3.53-1.79-.7-3.62-1.3-5.5-1.81-4.03-1.07-8.1-1.66-12.16-1.75-1.56-.04-3.12,0-4.68.1-7.04.48-13.95,2.44-20.35,5.82h-.02s.01,0,.01.01l-1.45,5.41,1.73-1c.58-.33,1.16-.66,1.75-.96,6.49-3.41,13.55-5.22,20.72-5.38,1.52-.04,3.04,0,4.56.11,2.96.22,5.92.72,8.85,1.51,3.86,1.03,7.52,2.52,10.91,4.42,2.29,1.27,4.45,2.74,6.48,4.36,4.5,3.63,8.34,8.09,11.32,13.24,2.96,5.14,4.9,10.68,5.79,16.37.41,2.58.59,5.19.55,7.82-.05,3.9-.58,7.82-1.62,11.69-.78,2.92-1.83,5.72-3.11,8.38-.66,1.38-1.4,2.73-2.19,4.03-3.72,6.13-8.82,11.34-15.01,15.26-.56.35-1.14.7-1.72,1.04l-1.73,1-13.3,7.68-4,2.31-5.75,3.31-6.92,4.01-21.94,12.66,1.07,4h0s.01,0,.01,0l6.93-4,9.92-5.73,6.93-4,9.75-5.63,4-2.31,15.26-8.81,1.77-1.02c.57-.33,1.13-.67,1.68-1.02,6.14-3.84,11.29-8.86,15.23-14.73.88-1.3,1.7-2.65,2.45-4.03,1.94-3.55,3.47-7.36,4.54-11.36,3.54-13.23,1.72-27.05-5.13-38.92Z" style="fill: #2fac66;"/>
      <path d="m102.44,90.26c-.14-6.08-1.36-12.09-3.58-17.72-.99-2.52-2.19-4.97-3.58-7.31-4.33-7.34-10.55-13.7-18.44-18.25-7.77-4.48-16.37-6.82-25.1-6.89-.02-.01-.04-.01-.06,0,.02.01.03.02.05.03l-1.07,3.98c2.62-.04,5.22.14,7.79.55,5.7.88,11.24,2.82,16.39,5.79,5.2,3,9.61,6.85,13.17,11.26,1.64,2.05,3.1,4.22,4.37,6.48,3.42,6.09,5.45,12.88,5.96,19.83.11,1.52.15,3.04.12,4.57-.17,7.02-1.91,14.1-5.36,20.69-.3.59-.62,1.18-.96,1.76l-1,1.73-7.68,13.3-2.31,4.01-3.31,5.73-4,6.92-12.67,21.96-4.01,6.93-3.31,5.73-2.31,4-7.68,13.3h0s0,.01,0,.01l1.44,5.4c.35-.55.68-1.11,1.01-1.67l1.02-1.77,8.82-15.27,2.31-4,5.62-9.73,4-6.94,5.75-9.94,4-6.93,5.62-9.73,2.31-4,8.82-15.27,1.02-1.77c.33-.57.64-1.14.94-1.72,3.44-6.49,5.32-13.42,5.79-20.36.11-1.56.15-3.13.1-4.69Z" style="fill: #1d1d1b;"/>
      <path d="m102.34,173.18c-.47-6.94-2.35-13.87-5.79-20.36-.3-.58-.61-1.15-.94-1.72l-1.02-1.77-8.82-15.26-2.31-4.01-5.62-9.73-4-6.93-5.75-9.94-4-6.94-5.63-9.74-2.31-4-8.81-15.26-1.02-1.77c-.33-.57-.66-1.13-1.01-1.68l-1.45,5.41,7.68,13.3,2.31,4,3.31,5.74,4.01,6.93,12.67,21.96,4,6.92,3.31,5.74,2.31,4,7.68,13.3,1,1.73c.34.58.66,1.17.96,1.76,3.45,6.59,5.19,13.67,5.36,20.69.03,1.52-.01,3.04-.12,4.55-.5,6.96-2.54,13.75-5.96,19.85-1.27,2.26-2.73,4.43-4.37,6.48-3.56,4.41-7.97,8.26-13.17,11.26-5.15,2.97-10.69,4.91-16.39,5.79-2.57.41-5.18.59-7.79.55l1.07,3.97h.01s.01.01.02,0c8.54-.07,17.17-2.29,25.08-6.85,7.88-4.55,14.1-10.9,18.43-18.23,1.4-2.35,2.6-4.81,3.59-7.35,2.22-5.63,3.44-11.63,3.58-17.71.05-1.56.01-3.12-.1-4.68Z" style="fill: #1d1d1b;"/>
      <path d="m118.77,145.43c-1.07-4.01-2.6-7.82-4.54-11.37-.75-1.38-1.57-2.72-2.44-4.02-3.95-5.87-9.1-10.89-15.24-14.73-.55-.36-1.11-.69-1.68-1.02l-1.77-1.02-15.26-8.81-4-2.31-9.75-5.63-6.93-4-9.94-5.74-6.92-4-1.07,4h-.02.02s21.94,12.67,21.94,12.67l6.92,4.01,5.75,3.31,4,2.31,13.3,7.68,1.73,1c.58.34,1.16.68,1.72,1.04,6.19,3.92,11.29,9.14,15.01,15.27.8,1.3,1.53,2.64,2.18,4.02,1.29,2.66,2.34,5.46,3.12,8.38,1.04,3.87,1.57,7.79,1.62,11.69.04,2.63-.14,5.24-.56,7.82-.88,5.69-2.82,11.23-5.78,16.36-2.98,5.15-6.82,9.62-11.32,13.23-2.03,1.64-4.19,3.11-6.48,4.38-3.39,1.9-7.05,3.39-10.91,4.42-2.93.78-5.89,1.28-8.85,1.5-1.52.12-3.04.16-4.56.11-7.17-.16-14.23-1.96-20.72-5.37-.59-.3-1.17-.63-1.75-.96l-1.72-1,1.44,5.4h-.01s.01.02.02.02c6.39,3.38,13.3,5.34,20.35,5.82,1.16.08,2.32.12,3.48.12.4,0,.8,0,1.2-.02,4.06-.09,8.14-.68,12.16-1.75,1.88-.5,3.71-1.11,5.5-1.81,2.52-.98,4.95-2.16,7.26-3.51,7.56-4.44,13.88-10.78,18.37-18.58,6.85-11.86,8.67-25.68,5.13-38.91Z" style="fill: #2fac66;"/>
      <path d="m77.8,82.82c-.28-7.35-2.11-14.32-5.18-20.57-.69-1.41-1.45-2.78-2.27-4.11-3.15-5.17-7.19-9.73-11.9-13.49-2.11-1.68-4.36-3.2-6.72-4.53l-1.07,3.98s-.01-.01-.02,0c.01,0,.02.01.02.01,5.98,3.56,11.11,8.39,15.01,14.13.86,1.26,1.66,2.56,2.39,3.9,3.38,6.18,5.43,13.19,5.73,20.64.04.66.05,1.33.05,2v98.56c0,.67-.01,1.34-.05,2-.3,7.45-2.35,14.46-5.73,20.64-.73,1.34-1.53,2.65-2.39,3.91-3.9,5.73-9.03,10.57-15.01,14.12l-.02.02s.01.01.02,0l1.07,3.97v.02h.01l.02-.02c2.35-1.33,4.59-2.85,6.69-4.52,4.71-3.76,8.75-8.32,11.9-13.49.82-1.33,1.58-2.7,2.27-4.12,3.07-6.25,4.91-13.21,5.18-20.57.03-.65.04-1.3.04-1.96v-98.56c0-.66-.01-1.31-.04-1.96Z" style="fill: #2fac66;"/>
    </g>
    <path d="m45.32,204.07s-.01,0-.02-.01h.01s.01.01.01.01Z" style="fill: #fff;"/>
    <path d="m50.64,224.03l.02-.02v.02s-.01.01-.02,0Z" style="fill: #fff;"/>
    <polygon points="39.21 86.78 39.23 86.78 39.23 86.79 39.21 86.78" style="fill: #fff;"/>
    <path d="m45.3,64.06h.02-.02Z" style="fill: #fff;"/>
    <path d="m50.64,44.1s.01-.01.02,0h0s-.01,0-.02,0Z" style="fill: #fff;"/>
    <path d="m51.74,40.09v.03s-.04-.02-.06-.03c.02-.01.04-.01.06,0Z" style="fill: #fff;"/>
    <path d="m186.39,224.01l.02.02s-.01.01-.02,0v-.02Z" style="fill: #fff;"/>
    <path d="m185.31,40.09s.03-.01.05,0c-.01.01-.03.01-.04.02v-.02Z" style="fill: #fff;"/>
    <path d="m186.39,44.1s.01-.01.02,0t-.02.01h0Z" style="fill: #fff;"/>
    <g>
      <g>
        <path d="m116.78,108.46l3.47,2c.1-.17.19-.33.29-.49,3.6-6.08,8.49-11.18,14.18-15.02,1.26-.86,2.55-1.65,3.88-2.37,6.27-3.43,13.31-5.45,20.62-5.75.67-.04,1.33-.05,2-.05h36.61s-1.07-4-1.07-4h-35.54c-.65,0-1.31.01-1.96.04-7.22.28-14.2,2.09-20.54,5.19-1.4.68-2.77,1.43-4.1,2.25-5.13,3.11-9.73,7.12-13.53,11.89-1.58,1.98-3.02,4.08-4.31,6.31Z" style="fill: #1d1d1b;"/>
        <path d="m116.85,159.78c1.27,2.19,2.68,4.26,4.25,6.2,3.78,4.76,8.38,8.77,13.52,11.88,1.33.82,2.7,1.57,4.1,2.24,6.33,3.11,13.32,4.92,20.54,5.2.65.03,1.3.04,1.96.04h35.54s1.07-4,1.07-4h-36.61c-.67,0-1.34-.01-2-.05-7.31-.31-14.35-2.32-20.62-5.74-1.33-.73-2.63-1.52-3.88-2.37-5.7-3.85-10.57-8.94-14.18-15.02-.08-.13-.15-.26-.23-.39l-3.46,2.01Z" style="fill: #1d1d1b;"/>
      </g>
      <path d="m118.29,122.7c1.07,4,2.6,7.81,4.54,11.36.75,1.38,1.57,2.73,2.45,4.03,3.94,5.87,9.09,10.89,15.23,14.73.55.35,1.11.69,1.68,1.02l1.77,1.02,15.26,8.81,4,2.31,9.75,5.63,6.93,4,9.92,5.73,6.93,4h.01s0,0,0,0l1.07-4-21.94-12.66-6.92-4.01-5.75-3.31-4-2.31-13.3-7.68-1.73-1c-.58-.34-1.16-.69-1.72-1.04-6.19-3.92-11.29-9.13-15.01-15.26-.79-1.3-1.53-2.65-2.19-4.03-1.28-2.66-2.33-5.46-3.11-8.38-1.04-3.87-1.57-7.79-1.62-11.69-.04-2.63.14-5.24.55-7.82.89-5.69,2.83-11.23,5.79-16.37,2.98-5.15,6.82-9.61,11.32-13.24,2.03-1.62,4.19-3.09,6.48-4.36,3.39-1.9,7.05-3.39,10.91-4.42,2.93-.79,5.89-1.29,8.85-1.51,1.52-.11,3.04-.15,4.56-.11,7.17.16,14.23,1.97,20.72,5.38.59.3,1.17.63,1.75.96l1.73,1-1.45-5.41s.01-.01.01-.01h-.02c-6.4-3.38-13.31-5.34-20.35-5.82-1.56-.1-3.12-.14-4.68-.1-4.06.09-8.13.68-12.16,1.75-1.88.51-3.71,1.11-5.5,1.81-2.53.99-4.96,2.17-7.27,3.53-7.55,4.43-13.87,10.76-18.36,18.55-6.85,11.87-8.67,25.69-5.13,38.92Z" style="fill: #2fac66;"/>
      <path d="m134.72,94.95c.47,6.94,2.35,13.87,5.79,20.36.3.58.61,1.15.94,1.72l1.02,1.77,8.82,15.27,2.31,4,5.62,9.73,4,6.93,5.75,9.94,4,6.94,5.62,9.73,2.31,4,8.82,15.27,1.02,1.77c.33.56.66,1.12,1.01,1.67l1.44-5.4h0s-7.68-13.31-7.68-13.31l-2.31-4-3.31-5.73-4.01-6.93-12.67-21.96-4-6.92-3.31-5.73-2.31-4.01-7.68-13.3-1-1.73c-.34-.58-.66-1.17-.96-1.76-3.45-6.59-5.19-13.67-5.36-20.69-.03-1.53.01-3.05.12-4.57.51-6.95,2.54-13.74,5.96-19.83,1.27-2.26,2.73-4.43,4.37-6.48,3.56-4.41,7.97-8.26,13.17-11.26,5.15-2.97,10.69-4.91,16.39-5.79,2.57-.41,5.17-.59,7.79-.55l-1.07-3.98s.03-.02.05-.03c-.02-.01-.04-.01-.06,0-8.73.07-17.33,2.41-25.1,6.89-7.89,4.55-14.11,10.91-18.44,18.25-1.39,2.34-2.59,4.79-3.58,7.31-2.22,5.63-3.44,11.64-3.58,17.72-.05,1.56-.01,3.13.1,4.69Z" style="fill: #1d1d1b;"/>
      <path d="m134.62,177.86c.14,6.08,1.36,12.08,3.58,17.71.99,2.54,2.19,5,3.59,7.35,4.33,7.33,10.55,13.68,18.43,18.23,7.91,4.56,16.54,6.78,25.08,6.85t.02.01h.01s1.07-3.98,1.07-3.98c-2.61.04-5.22-.14-7.79-.55-5.7-.88-11.24-2.82-16.39-5.79-5.2-3-9.61-6.85-13.17-11.26-1.64-2.05-3.1-4.22-4.37-6.48-3.42-6.1-5.46-12.89-5.96-19.85-.11-1.51-.15-3.03-.12-4.55.17-7.02,1.91-14.1,5.36-20.69.3-.59.62-1.18.96-1.76l1-1.73,7.68-13.3,2.31-4,3.31-5.74,4-6.92,12.67-21.96,4.01-6.93,3.31-5.74,2.31-4,7.68-13.3-1.45-5.41c-.35.55-.68,1.11-1.01,1.68l-1.02,1.77-8.81,15.26-2.31,4-5.63,9.74-4,6.94-5.75,9.94-4,6.93-5.62,9.73-2.31,4.01-8.82,15.26-1.02,1.77c-.33.57-.64,1.14-.94,1.72-3.44,6.49-5.32,13.42-5.79,20.36-.11,1.56-.15,3.12-.1,4.68Z" style="fill: #1d1d1b;"/>
      <path d="m123.42,184.34c4.49,7.8,10.81,14.14,18.37,18.58,2.31,1.35,4.74,2.53,7.26,3.51,1.79.7,3.62,1.31,5.5,1.81,4.02,1.07,8.1,1.66,12.16,1.75.4.02.8.02,1.2.02,1.16,0,2.32-.04,3.48-.12,7.05-.48,13.96-2.44,20.35-5.82t.02-.01h-.01s1.44-5.41,1.44-5.41l-1.72,1c-.58.33-1.16.66-1.75.96-6.49,3.41-13.55,5.21-20.72,5.37-1.52.05-3.04,0-4.56-.11-2.96-.22-5.92-.72-8.85-1.5-3.86-1.03-7.52-2.52-10.91-4.42-2.29-1.27-4.45-2.74-6.48-4.38-4.5-3.61-8.34-8.08-11.32-13.23-2.96-5.13-4.9-10.67-5.78-16.36-.42-2.58-.6-5.19-.56-7.82.05-3.9.58-7.82,1.62-11.69.78-2.92,1.83-5.72,3.12-8.38.65-1.38,1.38-2.72,2.18-4.02,3.72-6.13,8.82-11.35,15.01-15.27.56-.36,1.14-.7,1.72-1.04l1.73-1,13.3-7.68,4-2.31,5.75-3.31,6.92-4.01,21.94-12.66h.02s-.02-.01-.02-.01l-1.07-4-6.92,4-9.94,5.74-6.93,4-9.75,5.63-4,2.31-15.26,8.81-1.77,1.02c-.57.33-1.13.66-1.68,1.02-6.14,3.84-11.29,8.86-15.24,14.73-.87,1.3-1.69,2.64-2.44,4.02-1.94,3.55-3.47,7.36-4.54,11.37-3.54,13.23-1.72,27.05,5.13,38.91Z" style="fill: #2fac66;"/>
      <path d="m159.22,84.78v98.56c0,.66.01,1.31.04,1.96.27,7.36,2.11,14.32,5.18,20.57.69,1.42,1.45,2.79,2.27,4.12,3.15,5.17,7.19,9.73,11.9,13.49,2.1,1.67,4.34,3.19,6.69,4.52t.02.01h.01s0-.01,0-.01l1.07-3.97s.01.01.02,0l-.02-.02c-5.98-3.55-11.11-8.39-15.01-14.12-.86-1.26-1.66-2.57-2.39-3.91-3.38-6.18-5.43-13.19-5.73-20.64-.04-.66-.05-1.33-.05-2v-98.56c0-.67.01-1.34.05-2,.3-7.45,2.35-14.46,5.73-20.64.73-1.34,1.53-2.64,2.39-3.9,3.9-5.74,9.03-10.57,15.01-14.13,0,0,.01-.01.02-.01t-.02,0l-1.07-3.98c-2.36,1.33-4.61,2.85-6.72,4.53-4.71,3.76-8.75,8.32-11.9,13.49-.82,1.33-1.58,2.7-2.27,4.11-3.07,6.25-4.9,13.22-5.18,20.57-.03.65-.04,1.3-.04,1.96Z" style="fill: #2fac66;"/>
    </g>
  </g>
  <g>
    <path d="m237.95,94.72h17.58c32.41,0,46.03,11.87,46.03,39.66s-13.62,39.88-46.03,39.88h-17.58v-79.54Zm17.69,73.72c27.68,0,39.88-9.89,39.88-34.06s-12.19-33.84-39.99-33.84h-11.54v67.89h11.65Z" style="fill: #2fac66;"/>
    <path d="m371.15,174.26l-22.74-30.21c-2.31.11-4.72.22-7.25.22h-14.39v29.99h-6.04v-79.54h20.54c23.18,0,36.8,5.05,36.8,24.72,0,15.27-8.35,21.75-22.85,23.95l23.84,30.87h-7.91Zm-29.77-35.59c19.01,0,30.65-2.86,30.65-19.12s-11.64-19.12-30.65-19.12h-14.61v38.23h14.61Z" style="fill: #2fac66;"/>
    <path d="m396.47,94.72h6.04v79.54h-6.04v-79.54Z" style="fill: #2fac66;"/>
    <path d="m416,94.72h6.7l31.2,72.73,31.31-72.73h6.7l-34.72,79.54h-6.7l-34.5-79.54Z" style="fill: #1d1d1b;"/>
    <path d="m505.54,94.72h50.75v5.82h-44.71v30.32h42.73v5.6h-42.73v31.97h44.71v5.82h-50.75v-79.54Z" style="fill: #2fac66;"/>
    <path d="m570.95,168.88c47.02-30.21,54.05-37.35,54.05-51.3,0-11.86-9.67-18.02-23.18-18.02s-21.86,5.71-24.5,16.81l-5.82-.77c3.08-13.84,14.28-21.75,30.32-21.75,17.14,0,29.33,8.24,29.33,23.51s-9.01,24.39-50.43,51.08h49.99v5.82h-59.76v-5.38Z" style="fill: #1d1d1b;"/>
    <path d="m675.42,132.19l-28.56-37.46h7.47l24.83,32.52,24.61-32.52h7.47l-28.45,37.46,31.97,42.08h-7.36l-28.23-37.13-28.23,37.13h-7.47l31.97-42.08Z" style="fill: #1d1d1b;"/>
  </g>
</svg>